# xmcd
#
# Track frame offsets:
#	183
#	13120
#	26508
#	39183
#	54108
#	68233
#	82083
#	93033
#	106433
#	117433
#	129008
#	141583
#	153020
#	164708
#	175608
#	187408
#
# Disc length: 2686 seconds
#
# Revision: 3
# Processed by: cddbd v1.5.1PL2 Copyright (c) Steve Scherf et al.
# Submitted via: audiograbber 1.83.01
#
DISCID=ce0a7c10
DTITLE=Muddy Waters - Anthology CD3
DYEAR=1993
DGENRE=Blues
TTITLE0=Forty Days and Fort Nights
TTITLE1=Rollin' and Tumblin'
TTITLE2=All Aboard
TTITLE3=Rock Me
TTITLE4=Rollin' Stone
TTITLE5=I'm Ready
TTITLE6=Standin' Around Cryin'
TTITLE7=She Moves Me
TTITLE8=I Feel So Good
TTITLE9=Goin' Home
TTITLE10=The Stuff You Gotta Watch
TTITLE11=Little Anna Mae
TTITLE12=Mean Disposition
TTITLE13=Stand Here Trembling
TTITLE14=Last Time I Fool Around With You
TTITLE15=Where's My Woman Been
EXTD=
EXTT0=
EXTT1=
EXTT2=
EXTT3=
EXTT4=
EXTT5=
EXTT6=
EXTT7=
EXTT8=
EXTT9=
EXTT10=
EXTT11=
EXTT12=
EXTT13=
EXTT14=
EXTT15=
PLAYORDER=
